<mxfile host="app.diagrams.net" agent="Mozilla/5.0 (X11; Linux x86_64) AppleWebKit/537.36 (KHTML, like Gecko) Chrome/134.0.0.0 Safari/537.36" version="26.1.1">
  <diagram name="Page-1" id="CG8yK1vmEeWQRG1gDtdv">
    <mxGraphModel dx="1814" dy="1579" grid="1" gridSize="10" guides="1" tooltips="1" connect="1" arrows="1" fold="1" page="1" pageScale="1" pageWidth="850" pageHeight="1100" math="0" shadow="0">
      <root>
        <mxCell id="0" />
        <mxCell id="1" parent="0" />
        <mxCell id="iXKprFUikv9eABywqWHX-4" value="" style="edgeStyle=orthogonalEdgeStyle;rounded=0;orthogonalLoop=1;jettySize=auto;html=1;" parent="1" source="iXKprFUikv9eABywqWHX-1" target="iXKprFUikv9eABywqWHX-3" edge="1">
          <mxGeometry relative="1" as="geometry" />
        </mxCell>
        <mxCell id="iXKprFUikv9eABywqWHX-6" value="" style="edgeStyle=orthogonalEdgeStyle;rounded=0;orthogonalLoop=1;jettySize=auto;html=1;" parent="1" source="iXKprFUikv9eABywqWHX-1" target="iXKprFUikv9eABywqWHX-5" edge="1">
          <mxGeometry relative="1" as="geometry" />
        </mxCell>
        <mxCell id="iXKprFUikv9eABywqWHX-8" value="" style="edgeStyle=orthogonalEdgeStyle;rounded=0;orthogonalLoop=1;jettySize=auto;html=1;" parent="1" source="iXKprFUikv9eABywqWHX-1" target="iXKprFUikv9eABywqWHX-7" edge="1">
          <mxGeometry relative="1" as="geometry" />
        </mxCell>
        <mxCell id="iXKprFUikv9eABywqWHX-10" value="" style="edgeStyle=orthogonalEdgeStyle;rounded=0;orthogonalLoop=1;jettySize=auto;html=1;" parent="1" source="iXKprFUikv9eABywqWHX-1" target="iXKprFUikv9eABywqWHX-9" edge="1">
          <mxGeometry relative="1" as="geometry" />
        </mxCell>
        <mxCell id="iXKprFUikv9eABywqWHX-1" value="Assuit University" style="rounded=0;whiteSpace=wrap;html=1;" parent="1" vertex="1">
          <mxGeometry x="320" y="220" width="120" height="60" as="geometry" />
        </mxCell>
        <mxCell id="iXKprFUikv9eABywqWHX-21" value="" style="edgeStyle=orthogonalEdgeStyle;rounded=0;orthogonalLoop=1;jettySize=auto;html=1;" parent="1" source="iXKprFUikv9eABywqWHX-3" edge="1">
          <mxGeometry relative="1" as="geometry">
            <mxPoint x="670" y="140" as="targetPoint" />
          </mxGeometry>
        </mxCell>
        <mxCell id="YR_uyBi9FuHmP-A904-x-39" style="edgeStyle=orthogonalEdgeStyle;rounded=0;orthogonalLoop=1;jettySize=auto;html=1;exitX=0;exitY=1;exitDx=0;exitDy=0;entryX=1;entryY=0.5;entryDx=0;entryDy=0;" edge="1" parent="1" source="iXKprFUikv9eABywqWHX-3" target="YR_uyBi9FuHmP-A904-x-38">
          <mxGeometry relative="1" as="geometry" />
        </mxCell>
        <mxCell id="YR_uyBi9FuHmP-A904-x-53" style="edgeStyle=orthogonalEdgeStyle;rounded=0;orthogonalLoop=1;jettySize=auto;html=1;exitX=1;exitY=0.5;exitDx=0;exitDy=0;" edge="1" parent="1" source="iXKprFUikv9eABywqWHX-3" target="YR_uyBi9FuHmP-A904-x-6">
          <mxGeometry relative="1" as="geometry" />
        </mxCell>
        <mxCell id="YR_uyBi9FuHmP-A904-x-58" style="edgeStyle=orthogonalEdgeStyle;rounded=0;orthogonalLoop=1;jettySize=auto;html=1;exitX=0;exitY=0;exitDx=0;exitDy=0;entryX=1;entryY=0.5;entryDx=0;entryDy=0;" edge="1" parent="1" source="iXKprFUikv9eABywqWHX-3" target="YR_uyBi9FuHmP-A904-x-55">
          <mxGeometry relative="1" as="geometry" />
        </mxCell>
        <mxCell id="iXKprFUikv9eABywqWHX-3" value="Faculty" style="rounded=0;whiteSpace=wrap;html=1;" parent="1" vertex="1">
          <mxGeometry x="610" y="210" width="120" height="60" as="geometry" />
        </mxCell>
        <mxCell id="YR_uyBi9FuHmP-A904-x-13" style="edgeStyle=orthogonalEdgeStyle;rounded=0;orthogonalLoop=1;jettySize=auto;html=1;exitX=0;exitY=0.5;exitDx=0;exitDy=0;" edge="1" parent="1" source="iXKprFUikv9eABywqWHX-5" target="YR_uyBi9FuHmP-A904-x-14">
          <mxGeometry relative="1" as="geometry">
            <mxPoint x="-60" y="240" as="targetPoint" />
          </mxGeometry>
        </mxCell>
        <mxCell id="YR_uyBi9FuHmP-A904-x-40" style="edgeStyle=orthogonalEdgeStyle;rounded=0;orthogonalLoop=1;jettySize=auto;html=1;exitX=1;exitY=0.75;exitDx=0;exitDy=0;entryX=0;entryY=0.5;entryDx=0;entryDy=0;" edge="1" parent="1" source="iXKprFUikv9eABywqWHX-5" target="YR_uyBi9FuHmP-A904-x-38">
          <mxGeometry relative="1" as="geometry" />
        </mxCell>
        <mxCell id="YR_uyBi9FuHmP-A904-x-44" style="edgeStyle=orthogonalEdgeStyle;rounded=0;orthogonalLoop=1;jettySize=auto;html=1;exitX=0.25;exitY=0;exitDx=0;exitDy=0;entryX=0;entryY=0.5;entryDx=0;entryDy=0;" edge="1" parent="1" source="iXKprFUikv9eABywqWHX-5" target="YR_uyBi9FuHmP-A904-x-43">
          <mxGeometry relative="1" as="geometry" />
        </mxCell>
        <mxCell id="YR_uyBi9FuHmP-A904-x-52" style="edgeStyle=orthogonalEdgeStyle;rounded=0;orthogonalLoop=1;jettySize=auto;html=1;exitX=0;exitY=0;exitDx=0;exitDy=0;" edge="1" parent="1" source="iXKprFUikv9eABywqWHX-5" target="YR_uyBi9FuHmP-A904-x-18">
          <mxGeometry relative="1" as="geometry" />
        </mxCell>
        <mxCell id="YR_uyBi9FuHmP-A904-x-68" style="edgeStyle=orthogonalEdgeStyle;rounded=0;orthogonalLoop=1;jettySize=auto;html=1;exitX=0;exitY=1;exitDx=0;exitDy=0;entryX=0.5;entryY=0;entryDx=0;entryDy=0;" edge="1" parent="1" source="iXKprFUikv9eABywqWHX-5" target="YR_uyBi9FuHmP-A904-x-11">
          <mxGeometry relative="1" as="geometry" />
        </mxCell>
        <mxCell id="iXKprFUikv9eABywqWHX-5" value="Department" style="whiteSpace=wrap;html=1;rounded=0;" parent="1" vertex="1">
          <mxGeometry y="210" width="120" height="60" as="geometry" />
        </mxCell>
        <mxCell id="YR_uyBi9FuHmP-A904-x-15" style="edgeStyle=orthogonalEdgeStyle;rounded=0;orthogonalLoop=1;jettySize=auto;html=1;exitX=0.5;exitY=0;exitDx=0;exitDy=0;" edge="1" parent="1" source="iXKprFUikv9eABywqWHX-7" target="YR_uyBi9FuHmP-A904-x-16">
          <mxGeometry relative="1" as="geometry">
            <mxPoint x="370" y="-60" as="targetPoint" />
          </mxGeometry>
        </mxCell>
        <mxCell id="YR_uyBi9FuHmP-A904-x-19" style="edgeStyle=orthogonalEdgeStyle;rounded=0;orthogonalLoop=1;jettySize=auto;html=1;exitX=1;exitY=0.5;exitDx=0;exitDy=0;" edge="1" parent="1" source="iXKprFUikv9eABywqWHX-7" target="YR_uyBi9FuHmP-A904-x-20">
          <mxGeometry relative="1" as="geometry">
            <mxPoint x="510" y="50" as="targetPoint" />
          </mxGeometry>
        </mxCell>
        <mxCell id="YR_uyBi9FuHmP-A904-x-21" style="edgeStyle=orthogonalEdgeStyle;rounded=0;orthogonalLoop=1;jettySize=auto;html=1;exitX=0;exitY=0.5;exitDx=0;exitDy=0;" edge="1" parent="1" source="iXKprFUikv9eABywqWHX-7" target="YR_uyBi9FuHmP-A904-x-22">
          <mxGeometry relative="1" as="geometry">
            <mxPoint x="210" y="50" as="targetPoint" />
          </mxGeometry>
        </mxCell>
        <mxCell id="YR_uyBi9FuHmP-A904-x-45" style="edgeStyle=orthogonalEdgeStyle;rounded=0;orthogonalLoop=1;jettySize=auto;html=1;exitX=0;exitY=0;exitDx=0;exitDy=0;entryX=1;entryY=0.5;entryDx=0;entryDy=0;" edge="1" parent="1" source="iXKprFUikv9eABywqWHX-7" target="YR_uyBi9FuHmP-A904-x-43">
          <mxGeometry relative="1" as="geometry" />
        </mxCell>
        <mxCell id="YR_uyBi9FuHmP-A904-x-49" style="edgeStyle=orthogonalEdgeStyle;rounded=0;orthogonalLoop=1;jettySize=auto;html=1;exitX=0;exitY=1;exitDx=0;exitDy=0;entryX=0.5;entryY=0;entryDx=0;entryDy=0;" edge="1" parent="1" source="iXKprFUikv9eABywqWHX-7" target="YR_uyBi9FuHmP-A904-x-48">
          <mxGeometry relative="1" as="geometry" />
        </mxCell>
        <mxCell id="YR_uyBi9FuHmP-A904-x-71" style="edgeStyle=orthogonalEdgeStyle;rounded=0;orthogonalLoop=1;jettySize=auto;html=1;exitX=0.25;exitY=1;exitDx=0;exitDy=0;" edge="1" parent="1" source="iXKprFUikv9eABywqWHX-7">
          <mxGeometry relative="1" as="geometry">
            <mxPoint x="270" y="350" as="targetPoint" />
          </mxGeometry>
        </mxCell>
        <mxCell id="iXKprFUikv9eABywqWHX-7" value="Courses" style="whiteSpace=wrap;html=1;rounded=0;" parent="1" vertex="1">
          <mxGeometry x="310" y="20" width="120" height="60" as="geometry" />
        </mxCell>
        <mxCell id="YR_uyBi9FuHmP-A904-x-24" style="edgeStyle=orthogonalEdgeStyle;rounded=0;orthogonalLoop=1;jettySize=auto;html=1;exitX=1;exitY=0.5;exitDx=0;exitDy=0;entryX=0;entryY=0.5;entryDx=0;entryDy=0;" edge="1" parent="1" source="iXKprFUikv9eABywqWHX-9" target="YR_uyBi9FuHmP-A904-x-23">
          <mxGeometry relative="1" as="geometry" />
        </mxCell>
        <mxCell id="YR_uyBi9FuHmP-A904-x-25" style="edgeStyle=orthogonalEdgeStyle;rounded=0;orthogonalLoop=1;jettySize=auto;html=1;exitX=0;exitY=0.5;exitDx=0;exitDy=0;" edge="1" parent="1" source="iXKprFUikv9eABywqWHX-9" target="YR_uyBi9FuHmP-A904-x-26">
          <mxGeometry relative="1" as="geometry">
            <mxPoint x="240" y="510" as="targetPoint" />
          </mxGeometry>
        </mxCell>
        <mxCell id="YR_uyBi9FuHmP-A904-x-27" style="edgeStyle=orthogonalEdgeStyle;rounded=0;orthogonalLoop=1;jettySize=auto;html=1;exitX=1;exitY=0.75;exitDx=0;exitDy=0;" edge="1" parent="1" source="iXKprFUikv9eABywqWHX-9" target="YR_uyBi9FuHmP-A904-x-28">
          <mxGeometry relative="1" as="geometry">
            <mxPoint x="520" y="560" as="targetPoint" />
          </mxGeometry>
        </mxCell>
        <mxCell id="YR_uyBi9FuHmP-A904-x-70" style="edgeStyle=orthogonalEdgeStyle;rounded=0;orthogonalLoop=1;jettySize=auto;html=1;exitX=0;exitY=0;exitDx=0;exitDy=0;entryX=1;entryY=1;entryDx=0;entryDy=0;" edge="1" parent="1" source="iXKprFUikv9eABywqWHX-9">
          <mxGeometry relative="1" as="geometry">
            <mxPoint x="300" y="395" as="targetPoint" />
          </mxGeometry>
        </mxCell>
        <mxCell id="iXKprFUikv9eABywqWHX-9" value="Professors" style="whiteSpace=wrap;html=1;rounded=0;" parent="1" vertex="1">
          <mxGeometry x="310" y="430" width="120" height="60" as="geometry" />
        </mxCell>
        <mxCell id="YR_uyBi9FuHmP-A904-x-29" style="edgeStyle=orthogonalEdgeStyle;rounded=0;orthogonalLoop=1;jettySize=auto;html=1;exitX=0.5;exitY=1;exitDx=0;exitDy=0;" edge="1" parent="1" source="iXKprFUikv9eABywqWHX-13" target="YR_uyBi9FuHmP-A904-x-30">
          <mxGeometry relative="1" as="geometry">
            <mxPoint x="120" y="580" as="targetPoint" />
            <Array as="points">
              <mxPoint x="-60" y="500" />
            </Array>
          </mxGeometry>
        </mxCell>
        <mxCell id="YR_uyBi9FuHmP-A904-x-31" style="edgeStyle=orthogonalEdgeStyle;rounded=0;orthogonalLoop=1;jettySize=auto;html=1;exitX=0;exitY=0.5;exitDx=0;exitDy=0;" edge="1" parent="1" source="iXKprFUikv9eABywqWHX-13" target="YR_uyBi9FuHmP-A904-x-32">
          <mxGeometry relative="1" as="geometry">
            <mxPoint x="-20" y="540" as="targetPoint" />
          </mxGeometry>
        </mxCell>
        <mxCell id="YR_uyBi9FuHmP-A904-x-33" style="edgeStyle=orthogonalEdgeStyle;rounded=0;orthogonalLoop=1;jettySize=auto;html=1;exitX=1;exitY=1;exitDx=0;exitDy=0;" edge="1" parent="1" source="iXKprFUikv9eABywqWHX-13" target="YR_uyBi9FuHmP-A904-x-34">
          <mxGeometry relative="1" as="geometry">
            <mxPoint x="90" y="550" as="targetPoint" />
          </mxGeometry>
        </mxCell>
        <mxCell id="YR_uyBi9FuHmP-A904-x-51" style="edgeStyle=orthogonalEdgeStyle;rounded=0;orthogonalLoop=1;jettySize=auto;html=1;exitX=0.5;exitY=0;exitDx=0;exitDy=0;" edge="1" parent="1" source="iXKprFUikv9eABywqWHX-13" target="YR_uyBi9FuHmP-A904-x-48">
          <mxGeometry relative="1" as="geometry" />
        </mxCell>
        <mxCell id="iXKprFUikv9eABywqWHX-13" value="Student" style="rounded=0;whiteSpace=wrap;html=1;" parent="1" vertex="1">
          <mxGeometry x="-60" y="440" width="120" height="60" as="geometry" />
        </mxCell>
        <mxCell id="iXKprFUikv9eABywqWHX-14" value="" style="endArrow=classic;html=1;rounded=0;entryX=1;entryY=0;entryDx=0;entryDy=0;exitX=0;exitY=1;exitDx=0;exitDy=0;" parent="1" source="iXKprFUikv9eABywqWHX-1" target="iXKprFUikv9eABywqWHX-13" edge="1">
          <mxGeometry width="50" height="50" relative="1" as="geometry">
            <mxPoint x="280" y="320" as="sourcePoint" />
            <mxPoint x="400" y="230" as="targetPoint" />
          </mxGeometry>
        </mxCell>
        <mxCell id="iXKprFUikv9eABywqWHX-15" value="Department chair" style="rhombus;whiteSpace=wrap;html=1;" parent="1" vertex="1">
          <mxGeometry x="330" y="630" width="80" height="80" as="geometry" />
        </mxCell>
        <mxCell id="iXKprFUikv9eABywqWHX-16" value="" style="endArrow=classic;html=1;rounded=0;entryX=0;entryY=0.5;entryDx=0;entryDy=0;exitX=0;exitY=1;exitDx=0;exitDy=0;" parent="1" source="iXKprFUikv9eABywqWHX-9" target="iXKprFUikv9eABywqWHX-15" edge="1">
          <mxGeometry width="50" height="50" relative="1" as="geometry">
            <mxPoint x="370" y="570" as="sourcePoint" />
            <mxPoint x="400" y="530" as="targetPoint" />
          </mxGeometry>
        </mxCell>
        <mxCell id="iXKprFUikv9eABywqWHX-17" value="" style="endArrow=classic;html=1;rounded=0;entryX=1;entryY=0.5;entryDx=0;entryDy=0;exitX=1;exitY=1;exitDx=0;exitDy=0;" parent="1" source="iXKprFUikv9eABywqWHX-9" target="iXKprFUikv9eABywqWHX-15" edge="1">
          <mxGeometry width="50" height="50" relative="1" as="geometry">
            <mxPoint x="320" y="490" as="sourcePoint" />
            <mxPoint x="346" y="673" as="targetPoint" />
          </mxGeometry>
        </mxCell>
        <mxCell id="YR_uyBi9FuHmP-A904-x-5" value="dean_name" style="ellipse;whiteSpace=wrap;html=1;align=center;" vertex="1" parent="1">
          <mxGeometry x="640" y="330" width="100" height="40" as="geometry" />
        </mxCell>
        <mxCell id="YR_uyBi9FuHmP-A904-x-6" value="&lt;u&gt;faculty_id&lt;span style=&quot;color: rgba(0, 0, 0, 0); font-family: monospace; font-size: 0px; text-align: start; text-wrap-mode: nowrap;&quot;&gt;%3CmxGraphModel%3E%3Croot%3E%3CmxCell%20id%3D%220%22%2F%3E%3CmxCell%20id%3D%221%22%20parent%3D%220%22%2F%3E%3CmxCell%20id%3D%222%22%20value%3D%22dean_name%22%20style%3D%22ellipse%3BwhiteSpace%3Dwrap%3Bhtml%3D1%3Balign%3Dcenter%3B%22%20vertex%3D%221%22%20parent%3D%221%22%3E%3CmxGeometry%20x%3D%22740%22%20y%3D%22370%22%20width%3D%22100%22%20height%3D%2240%22%20as%3D%22geometry%22%2F%3E%3C%2FmxCell%3E%3C%2Froot%3E%3C%2FmxGraphModel%3E&lt;/span&gt;&lt;/u&gt;" style="ellipse;whiteSpace=wrap;html=1;align=center;" vertex="1" parent="1">
          <mxGeometry x="790" y="220" width="100" height="40" as="geometry" />
        </mxCell>
        <mxCell id="YR_uyBi9FuHmP-A904-x-7" value="faculty_name" style="ellipse;whiteSpace=wrap;html=1;align=center;" vertex="1" parent="1">
          <mxGeometry x="620" y="100" width="100" height="40" as="geometry" />
        </mxCell>
        <mxCell id="YR_uyBi9FuHmP-A904-x-11" value="&lt;u&gt;dep_id&lt;/u&gt;" style="ellipse;whiteSpace=wrap;html=1;align=center;" vertex="1" parent="1">
          <mxGeometry x="-160" y="310" width="100" height="40" as="geometry" />
        </mxCell>
        <mxCell id="YR_uyBi9FuHmP-A904-x-14" value="dep_name" style="ellipse;whiteSpace=wrap;html=1;align=center;" vertex="1" parent="1">
          <mxGeometry x="-180" y="220" width="100" height="40" as="geometry" />
        </mxCell>
        <mxCell id="YR_uyBi9FuHmP-A904-x-16" value="&lt;u&gt;course_id&lt;/u&gt;" style="ellipse;whiteSpace=wrap;html=1;align=center;" vertex="1" parent="1">
          <mxGeometry x="320" y="-80" width="100" height="40" as="geometry" />
        </mxCell>
        <mxCell id="YR_uyBi9FuHmP-A904-x-18" value="faculty_id" style="ellipse;whiteSpace=wrap;html=1;align=center;" vertex="1" parent="1">
          <mxGeometry x="-130" y="100" width="100" height="40" as="geometry" />
        </mxCell>
        <mxCell id="YR_uyBi9FuHmP-A904-x-20" value="course_name" style="ellipse;whiteSpace=wrap;html=1;align=center;" vertex="1" parent="1">
          <mxGeometry x="460" y="30" width="100" height="40" as="geometry" />
        </mxCell>
        <mxCell id="YR_uyBi9FuHmP-A904-x-22" value="dep_id" style="ellipse;whiteSpace=wrap;html=1;align=center;fontStyle=4;" vertex="1" parent="1">
          <mxGeometry x="160" y="30" width="100" height="40" as="geometry" />
        </mxCell>
        <mxCell id="YR_uyBi9FuHmP-A904-x-23" value="&lt;u&gt;prof_id&lt;/u&gt;" style="ellipse;whiteSpace=wrap;html=1;align=center;" vertex="1" parent="1">
          <mxGeometry x="520" y="400" width="100" height="40" as="geometry" />
        </mxCell>
        <mxCell id="YR_uyBi9FuHmP-A904-x-26" value="name" style="ellipse;whiteSpace=wrap;html=1;align=center;" vertex="1" parent="1">
          <mxGeometry x="200" y="530" width="100" height="40" as="geometry" />
        </mxCell>
        <mxCell id="YR_uyBi9FuHmP-A904-x-28" value="dep_id" style="ellipse;whiteSpace=wrap;html=1;align=center;" vertex="1" parent="1">
          <mxGeometry x="470" y="540" width="100" height="40" as="geometry" />
        </mxCell>
        <mxCell id="YR_uyBi9FuHmP-A904-x-30" value="stu_id" style="ellipse;whiteSpace=wrap;html=1;align=center;fontStyle=4;" vertex="1" parent="1">
          <mxGeometry x="-120" y="570" width="100" height="40" as="geometry" />
        </mxCell>
        <mxCell id="YR_uyBi9FuHmP-A904-x-32" value="stu_name" style="ellipse;whiteSpace=wrap;html=1;align=center;" vertex="1" parent="1">
          <mxGeometry x="-210" y="450" width="100" height="40" as="geometry" />
        </mxCell>
        <mxCell id="YR_uyBi9FuHmP-A904-x-34" value="stu_address" style="ellipse;whiteSpace=wrap;html=1;align=center;" vertex="1" parent="1">
          <mxGeometry x="10" y="530" width="100" height="40" as="geometry" />
        </mxCell>
        <mxCell id="YR_uyBi9FuHmP-A904-x-35" value="phone_no." style="ellipse;shape=doubleEllipse;margin=3;whiteSpace=wrap;html=1;align=center;" vertex="1" parent="1">
          <mxGeometry x="-240" y="360" width="100" height="40" as="geometry" />
        </mxCell>
        <mxCell id="YR_uyBi9FuHmP-A904-x-37" style="edgeStyle=orthogonalEdgeStyle;rounded=0;orthogonalLoop=1;jettySize=auto;html=1;exitX=0;exitY=0;exitDx=0;exitDy=0;entryX=0.61;entryY=1.075;entryDx=0;entryDy=0;entryPerimeter=0;" edge="1" parent="1" source="iXKprFUikv9eABywqWHX-13" target="YR_uyBi9FuHmP-A904-x-35">
          <mxGeometry relative="1" as="geometry" />
        </mxCell>
        <mxCell id="YR_uyBi9FuHmP-A904-x-38" value="has" style="shape=rhombus;perimeter=rhombusPerimeter;whiteSpace=wrap;html=1;align=center;" vertex="1" parent="1">
          <mxGeometry x="420" y="300" width="120" height="60" as="geometry" />
        </mxCell>
        <mxCell id="YR_uyBi9FuHmP-A904-x-41" value="1" style="text;html=1;align=center;verticalAlign=middle;resizable=0;points=[];autosize=1;strokeColor=none;fillColor=none;" vertex="1" parent="1">
          <mxGeometry x="545" y="308" width="30" height="30" as="geometry" />
        </mxCell>
        <mxCell id="YR_uyBi9FuHmP-A904-x-42" value="M" style="text;html=1;align=center;verticalAlign=middle;resizable=0;points=[];autosize=1;strokeColor=none;fillColor=none;" vertex="1" parent="1">
          <mxGeometry x="385" y="308" width="30" height="30" as="geometry" />
        </mxCell>
        <mxCell id="YR_uyBi9FuHmP-A904-x-43" value="has" style="shape=rhombus;perimeter=rhombusPerimeter;whiteSpace=wrap;html=1;align=center;" vertex="1" parent="1">
          <mxGeometry x="20" y="-60" width="120" height="60" as="geometry" />
        </mxCell>
        <mxCell id="YR_uyBi9FuHmP-A904-x-46" value="M" style="text;html=1;align=center;verticalAlign=middle;resizable=0;points=[];autosize=1;strokeColor=none;fillColor=none;" vertex="1" parent="1">
          <mxGeometry x="-15" y="-62" width="30" height="30" as="geometry" />
        </mxCell>
        <mxCell id="YR_uyBi9FuHmP-A904-x-47" value="M" style="text;html=1;align=center;verticalAlign=middle;resizable=0;points=[];autosize=1;strokeColor=none;fillColor=none;" vertex="1" parent="1">
          <mxGeometry x="145" y="-62" width="30" height="30" as="geometry" />
        </mxCell>
        <mxCell id="YR_uyBi9FuHmP-A904-x-48" value="takes" style="shape=rhombus;perimeter=rhombusPerimeter;whiteSpace=wrap;html=1;align=center;" vertex="1" parent="1">
          <mxGeometry x="175" y="150" width="120" height="60" as="geometry" />
        </mxCell>
        <mxCell id="YR_uyBi9FuHmP-A904-x-54" style="edgeStyle=orthogonalEdgeStyle;rounded=0;orthogonalLoop=1;jettySize=auto;html=1;exitX=0.5;exitY=1;exitDx=0;exitDy=0;entryX=0.3;entryY=0;entryDx=0;entryDy=0;entryPerimeter=0;" edge="1" parent="1" source="iXKprFUikv9eABywqWHX-3" target="YR_uyBi9FuHmP-A904-x-5">
          <mxGeometry relative="1" as="geometry" />
        </mxCell>
        <mxCell id="YR_uyBi9FuHmP-A904-x-55" value="contains" style="shape=rhombus;perimeter=rhombusPerimeter;whiteSpace=wrap;html=1;align=center;" vertex="1" parent="1">
          <mxGeometry x="440" y="120" width="120" height="60" as="geometry" />
        </mxCell>
        <mxCell id="YR_uyBi9FuHmP-A904-x-57" style="edgeStyle=orthogonalEdgeStyle;rounded=0;orthogonalLoop=1;jettySize=auto;html=1;exitX=1;exitY=1;exitDx=0;exitDy=0;entryX=0.5;entryY=0;entryDx=0;entryDy=0;" edge="1" parent="1" source="iXKprFUikv9eABywqWHX-7" target="YR_uyBi9FuHmP-A904-x-55">
          <mxGeometry relative="1" as="geometry" />
        </mxCell>
        <mxCell id="YR_uyBi9FuHmP-A904-x-59" value="M" style="text;html=1;align=center;verticalAlign=middle;resizable=0;points=[];autosize=1;strokeColor=none;fillColor=none;" vertex="1" parent="1">
          <mxGeometry x="575" y="128" width="30" height="30" as="geometry" />
        </mxCell>
        <mxCell id="YR_uyBi9FuHmP-A904-x-60" value="M" style="text;html=1;align=center;verticalAlign=middle;resizable=0;points=[];autosize=1;strokeColor=none;fillColor=none;" vertex="1" parent="1">
          <mxGeometry x="485" y="78" width="30" height="30" as="geometry" />
        </mxCell>
        <mxCell id="YR_uyBi9FuHmP-A904-x-64" value="1" style="text;html=1;align=center;verticalAlign=middle;resizable=0;points=[];autosize=1;strokeColor=none;fillColor=none;" vertex="1" parent="1">
          <mxGeometry x="305" y="638" width="30" height="30" as="geometry" />
        </mxCell>
        <mxCell id="YR_uyBi9FuHmP-A904-x-65" value="M" style="text;html=1;align=center;verticalAlign=middle;resizable=0;points=[];autosize=1;strokeColor=none;fillColor=none;" vertex="1" parent="1">
          <mxGeometry x="405" y="648" width="30" height="30" as="geometry" />
        </mxCell>
        <mxCell id="YR_uyBi9FuHmP-A904-x-66" value="1" style="text;html=1;align=center;verticalAlign=middle;resizable=0;points=[];autosize=1;strokeColor=none;fillColor=none;" vertex="1" parent="1">
          <mxGeometry x="205" y="198" width="30" height="30" as="geometry" />
        </mxCell>
        <mxCell id="YR_uyBi9FuHmP-A904-x-67" value="M" style="text;html=1;align=center;verticalAlign=middle;resizable=0;points=[];autosize=1;strokeColor=none;fillColor=none;" vertex="1" parent="1">
          <mxGeometry x="205" y="118" width="30" height="30" as="geometry" />
        </mxCell>
        <mxCell id="YR_uyBi9FuHmP-A904-x-73" value="teach" style="shape=rhombus;perimeter=rhombusPerimeter;whiteSpace=wrap;html=1;align=center;" vertex="1" parent="1">
          <mxGeometry x="215" y="350" width="120" height="60" as="geometry" />
        </mxCell>
        <mxCell id="YR_uyBi9FuHmP-A904-x-74" value="1" style="text;html=1;align=center;verticalAlign=middle;resizable=0;points=[];autosize=1;strokeColor=none;fillColor=none;" vertex="1" parent="1">
          <mxGeometry x="295" y="388" width="30" height="30" as="geometry" />
        </mxCell>
        <mxCell id="YR_uyBi9FuHmP-A904-x-75" value="M" style="text;html=1;align=center;verticalAlign=middle;resizable=0;points=[];autosize=1;strokeColor=none;fillColor=none;" vertex="1" parent="1">
          <mxGeometry x="245" y="328" width="30" height="30" as="geometry" />
        </mxCell>
      </root>
    </mxGraphModel>
  </diagram>
</mxfile>
